# xmcd CD database file
#
# Track frame offsets:
#	150
#	43805
#	76840
#	100619
#	117373
#	148779
#	169104
#	193276
#	209259
#	228878
#	255718
#	277393
#	294200
#	314680
#
# Disc length: 4462 seconds
#
# Revision: 0
# Processed by: cddbd v1.5.2PL0 Copyright (c) Steve Scherf et al.
# Submitted via: CDex 1.51
#
DISCID=d2116c0e
DTITLE=Varios - Jazz at the midnight glamour
DYEAR=2006
DGENRE=Jazz
TTITLE0=Stompin' at the savoy
TTITLE1=Nightslide
TTITLE2=Al chiaro di luna
TTITLE3=Toccata e fuga in D minor
TTITLE4=Autumn leaves
TTITLE5=The windmills of your mind
TTITLE6=Aranjuez mon amour
TTITLE7=Habanera - Carmen
TTITLE8=La cumparcita
TTITLE9=My way
TTITLE10=Dark eyes
TTITLE11=Adagio in G minor
TTITLE12=Strangers in the night
TTITLE13=I left my heart in San Francisco
EXTD=YEAR: 2006
EXTT0=
EXTT1=
EXTT2=
EXTT3=
EXTT4=
EXTT5=
EXTT6=
EXTT7=
EXTT8=
EXTT9=
EXTT10=
EXTT11=
EXTT12=
EXTT13=
PLAYORDER=
